<?xml version="1.0" encoding="UTF-8"?>
<svg width="120px" height="128px" viewBox="0 0 120 128" version="1.1" xmlns="http://www.w3.org/2000/svg" xmlns:xlink="http://www.w3.org/1999/xlink">
    <!-- Generator: Sketch 47.1 (45422) - http://www.bohemiancoding.com/sketch -->
    <title>lettuce</title>
    <desc>Created with Sketch.</desc>
    <defs></defs>
    <g id="Page-1" stroke="none" stroke-width="1" fill="none" fill-rule="evenodd">
        <g id="Search-Main-Page" transform="translate(-449.000000, -114.000000)" fill-rule="nonzero">
            <g id="lettuce" transform="translate(449.000000, 114.000000)">
                <path d="M102.460821,96.1294154 C101.434623,94.7002218 99.7543179,92.8037631 97.3165331,91.3551416 C96.3891913,90.8041872 96.3708753,89.5005276 97.2668541,88.9493241 C99.7758957,87.405805 104.421135,84.9200343 110.273726,83.4763944 C111.434659,83.1899579 111.699865,81.7111983 110.731626,80.9826533 C109.513235,80.0660565 107.787767,78.9693783 105.559738,78.0333536 C104.538558,77.6044461 104.321024,76.2751317 105.170586,75.6145842 C107.265636,73.9856323 110.889946,71.5093265 114.975168,70.2138863 C116.163199,69.8370354 116.301949,68.2576495 115.196716,67.6364559 C113.672975,66.7803844 111.758325,65.798779 109.887584,65.096885 C108.799664,64.6886507 108.594424,63.2684238 109.518253,62.616594 C112.388597,60.5913634 117.034087,56.8617111 119.801309,52.2802215 C120.344517,51.38106 119.714245,50.2034324 118.634354,50.1175014 C117.081257,49.993711 114.776953,49.5869712 111.827073,48.4454595 C110.939123,48.1017357 110.585349,47.0446605 111.119524,46.2956913 C113.807711,42.5256888 120.129994,31.5048577 114.033023,17.8841794 C113.777602,17.3135481 113.176185,16.9568724 112.548924,17.0041966 C97.5774734,18.1330055 90.8003012,28.8840882 88.7310947,33.0212276 C88.3201137,33.8431758 87.2148808,34.0354619 86.4890151,33.4219896 C84.0778262,31.3848034 82.6248402,29.5638145 81.7785405,28.2648872 C81.1904211,27.3619896 79.8470803,27.3694618 79.3071345,28.2703669 C76.5559704,32.8610722 75.4502358,38.6896814 75.0149171,42.158801 C74.8749126,43.2754052 73.517772,43.7690723 72.6401093,43.0118836 C71.1306699,41.7097184 69.3522612,40.5014545 67.8704212,39.5756419 C66.7957987,38.9041351 65.4604868,39.7744039 65.6895623,40.9913855 C66.4774014,45.1760982 65.9994289,49.5182264 65.5478015,52.1215606 C65.3646414,53.1773905 64.0827721,53.6172573 63.2181564,52.9280662 C61.331608,51.42415 59.540905,50.4360686 58.1501433,49.8056592 C57.0449105,49.304769 55.8588865,50.2378047 56.1554552,51.3882832 C57.6498404,57.1879996 57.6475823,62.4267987 57.4681858,65.3514399 C57.4042052,66.3958122 56.2395081,66.9980761 55.3109119,66.4486162 C52.8703671,65.0047272 50.391685,64.4350921 48.637614,64.2159059 C47.54869,64.0796618 46.7294879,65.1210453 47.1484978,66.1208332 C49.5338436,71.8144436 50.038161,78.0311119 50.1352609,81.0075608 C50.1641149,81.889038 49.3770285,82.5630355 48.4845625,82.4138395 C45.111407,81.849186 41.4406792,82.3149566 39.1316082,82.7523327 C38.0687782,82.9535855 37.642492,84.1947273 38.3432673,85.028133 C46.9480254,95.2628827 49.2523292,106.536027 49.6477541,114.316888 L57.5457152,119 C64.6342594,115.656663 75.7252268,112.32603 88.8823899,114.994621 C89.9537506,115.211815 90.8524893,114.251132 90.5270666,113.226686 C89.8202696,111.000949 88.4929866,107.571682 86.3929188,104.891134 C85.837417,104.182017 86.0619762,103.174508 86.8575933,102.781716 C89.5435223,101.45564 95.2962528,98.9486978 101.477026,98.3342292 C102.562437,98.2263796 103.097867,97.0166213 102.460821,96.1294154 Z" id="Shape" fill="#30AA44"></path>
                <path d="M68.2129011,96.7467483 C69.2490382,96.387239 69.5253919,95.1028855 68.7137133,94.3878588 C66.9500382,92.83431 65.0654425,90.5622416 61.8653332,89.3277853 C61.0186381,89.0012082 60.6898856,88.0202296 61.171804,87.277011 C62.7991917,84.7671826 65.4196387,79.6781687 70.4290203,75.9982513 C71.3084647,75.3520827 71.1427029,74.0390383 70.1332691,73.6006915 C68.5076447,72.8948958 66.0753802,72.120741 63.2229172,72.1182461 C62.1376561,72.1172482 61.4461423,71.0055389 61.9323433,70.0747069 C63.2944618,67.468078 66.0096297,62.9621127 70.3055807,58.7365696 C71.157818,57.8982969 70.61947,56.4914457 69.4067387,56.3587192 C67.8811256,56.1915636 65.8249741,56.1284437 63.4189091,56.459761 C62.3162657,56.6116979 61.4393405,55.5795747 61.829057,54.5783876 C62.0436908,54.0270237 62.3046775,53.3973213 62.6084901,52.7209649 C60.9788351,51.5161974 59.4517106,50.6906485 58.2314217,50.1387856 C57.1217246,49.6370694 55.9309101,50.5716437 56.2286767,51.7240192 C57.729098,57.5332989 57.7268307,62.7807364 57.5464577,65.7102002 C57.4822187,66.7562946 56.3128172,67.3595516 55.3804701,66.8091857 C52.9300675,65.3629157 50.4413735,64.7923414 48.6802175,64.5727938 C47.5868951,64.436325 46.7643841,65.4794257 47.1850865,66.4808622 C49.5803191,72.1838609 50.0864216,78.4107802 50.1839137,81.392137 C50.2128842,82.2750677 49.4226187,82.9501766 48.5267997,82.8007345 C45.1400194,82.2351499 41.4544648,82.7016886 39.136067,83.1397859 C38.068944,83.3413705 37.6411879,84.5845589 38.3445419,85.4193388 C45.0354736,93.3587294 47.9307626,101.920837 49.0815223,109 C53.6241006,104.303427 59.8658631,99.6417829 68.2129011,96.7467483 Z" id="Shape" fill="#269E35"></path>
                <path d="M65.9529005,98.7222296 C65.8019037,98.6312216 65.6605181,98.5182901 65.5338021,98.3829253 C64.792476,97.59215 64.8276327,96.3455701 65.6122092,95.5983868 C74.2630374,87.3602523 87.58895,87.9914449 88.1519633,88.0225457 C89.229428,88.082198 90.0557373,89.0103775 89.9970585,90.0963551 C89.9383796,91.1818229 89.0184878,92.0141508 87.9417817,91.9560281 L87.9417817,91.9560281 C87.8203773,91.9499099 75.7097742,91.4020775 68.29626,98.4616969 C67.6462401,99.0814179 66.6848684,99.1629937 65.9529005,98.7222296 Z" id="Shape" fill="#83CC8E"></path>
                <g id="Group" transform="translate(56.000000, 66.000000)" fill="#78C181">
                    <path d="M20.1360261,14.25125 C19.8476732,14.07775 19.6007974,13.826 19.4304183,13.50625 C18.9297124,12.566 19.280902,11.39525 20.2150065,10.89125 C27.5321176,6.94275 35.8816863,8.32825 36.2336209,8.38925 C37.2782484,8.56925 37.9791373,9.569 37.799817,10.62025 C37.6202484,11.67075 36.6297647,12.376 35.5863791,12.19725 L35.5863791,12.19725 C35.5128627,12.18475 28.1577516,10.98875 22.0283268,14.296 C21.4121307,14.62875 20.6958431,14.58775 20.1360261,14.25125 Z" id="Shape"></path>
                    <path d="M5.20823529,35.55975 C4.48946405,35.1275 4.11194771,34.25325 4.34044444,33.399 C6.93487582,23.7015 0.380993464,13.46625 0.314431373,13.364 C-0.265503268,12.472 -0.019124183,11.275 0.866300654,10.69 C1.75147712,10.10475 2.93941176,10.3515 3.52183007,11.2415 C3.83253595,11.7165 11.0957516,23.00725 8.04656209,34.4035 C7.77087582,35.43375 6.71780392,36.044 5.69453595,35.7665 C5.51918954,35.71925 5.3565098,35.649 5.20823529,35.55975 Z" id="Shape"></path>
                    <path d="M16.2341961,17.98825 C15.6743791,17.65175 15.299098,17.03625 15.2978562,16.33225 C15.2846928,9.31225 10.7634379,3.17125 10.7177386,3.11 C10.0819216,2.25775 10.2508105,1.04725 11.0962484,0.406 C11.9419346,-0.2355 13.1422876,-0.067 13.781085,0.7825 C13.9991503,1.07275 19.1204575,7.98675 19.1358562,16.32525 C19.1378431,17.392 18.2804837,18.2585 17.2204575,18.2605 C16.8600784,18.261 16.522549,18.1615 16.2341961,17.98825 Z" id="Shape"></path>
                </g>
                <path d="M90.6321068,54.0865447 L45.8147781,120.297522 C44.2535887,122.603928 45.007636,125.793282 47.4637112,127.270718 L47.4637112,127.270718 L47.4637112,127.270718 C49.9197865,128.748154 53.0653476,127.904874 54.3416193,125.426748 L90.9763511,54.2934108 C91.089022,54.0747453 90.7699541,53.8826911 90.6321068,54.0865447 Z" id="Shape" fill="#83CC8E"></path>
                <g id="Group" transform="translate(45.000000, 54.000000)" fill="#78C181">
                    <path d="M5.19762617,68.458278 L29.7963925,32.5878441 L46.6153738,0.35319322 C46.7294299,0.134705085 46.4064393,-0.0571932203 46.2668972,0.146244068 L0.898570093,66.3037492 C-0.681813084,68.6082847 0.0815046729,71.7950508 2.5677757,73.2712881 L2.5677757,73.2712881 C3.43228037,73.784522 4.38056075,74.011539 5.3051215,73.9929763 C4.14513084,72.3699932 4.023,70.1710644 5.19762617,68.458278 Z" id="Shape"></path>
                    <path d="M53.7905607,7.17774915 C53.8238692,6.10788475 52.9782897,5.21386441 51.9020748,5.18050169 C51.6752243,5.17372881 47.172028,5.04755254 43.0347196,5.75594576 L40.4914206,9.98899661 C40.8608411,10.1184339 41.2729065,10.1390034 41.6779065,10.022861 C45.6527103,8.88501695 51.7211495,9.05358644 51.782215,9.05534237 C52.8581776,9.08795254 53.7572523,8.24736271 53.7905607,7.17774915 Z" id="Shape"></path>
                    <path d="M40.228486,10.4264746 C38.9514112,6.2947661 36.5516916,2.10210169 36.4358692,1.90092203 C35.9006636,0.971783051 34.7101402,0.65019661 33.7757383,1.18174237 C32.8413364,1.71303729 32.5168318,2.89728814 33.0512804,3.82617627 C33.0808037,3.8776 36.014972,9.00943729 36.8928505,13.0327797 C37.0119533,13.5788746 37.3515981,14.0208678 37.7987383,14.2862644 C37.8259907,14.3023186 37.8545047,14.3161153 37.882514,14.3309153 L40.228486,10.4264746 Z" id="Shape"></path>
                </g>
                <path d="M63.1424626,73.4407443 C61.5339298,72.7350984 59.1272376,71.9611078 56.3047647,71.9586135 C55.2309139,71.9576157 54.5464212,70.8461423 55.0277597,69.9155078 C56.3755571,67.3094318 59.0621784,62.8044225 63.3129626,58.5797758 C64.1562396,57.741681 63.6235518,56.3351283 62.4235708,56.2024299 C60.9139978,56.0353098 58.8794642,55.9722033 56.498696,56.3034503 C55.4076456,56.455355 54.5399402,55.4234507 54.9255594,54.4224761 C55.8765206,51.9540871 57.6971814,47.9773769 60.5164137,44.7811424 C61.3362594,43.8515057 60.6440394,42.4227534 59.3827383,42.4521865 C57.6438378,42.4928441 55.5068547,42.6250436 53.5510901,42.9749981 C52.413925,43.1785354 51.5098263,42.0623228 51.9632466,41.0309173 C53.3723643,37.8264516 55.4203583,32.2516241 55.4295813,26.9022841 C55.4313262,25.8524206 54.2896742,25.1612418 53.3245046,25.6376588 C51.9363256,26.3231007 49.7622014,27.1479756 46.660298,27.6702883 C45.7265363,27.8276805 44.8825115,27.0988373 44.9535532,26.1826699 C45.3117527,21.5711526 45.0485246,8.87301764 32.8585229,0.27032301 C32.3477707,-0.0901076701 31.6518117,-0.0901076701 31.1410595,0.27032301 C18.951307,8.87251877 18.6880789,21.5706538 19.0462785,26.182171 C19.1175694,27.0983384 18.2735446,27.8269322 17.3395337,27.6697894 C14.2376303,27.1474767 12.0637553,26.3226018 10.675327,25.6371599 C9.71015748,25.1607429 8.56850547,25.8519217 8.57025035,26.9017852 C8.57947331,32.2513747 10.6274674,37.8262022 12.036585,41.0304185 C12.4900053,42.0618239 11.5861559,43.1780366 10.4487415,42.9744992 C8.49297696,42.6242953 6.35599385,42.4920958 4.61709333,42.4516877 C3.3557922,42.4222546 2.6635722,43.8510068 3.48341793,44.7806436 C6.30289956,47.976878 8.12331104,51.9535883 9.07427226,54.4219772 C9.4598914,55.4229518 8.59218602,56.4548561 7.50113562,56.3029514 C5.12036743,55.9717044 3.08583388,56.0350604 1.57626083,56.2019311 C0.376529151,56.3346294 -0.156158695,57.7414315 0.687118322,58.5795264 C4.93790253,62.8041731 7.62452378,67.3091824 8.97232124,69.9152584 C9.45365968,70.8458929 8.76916701,71.9571169 7.69531617,71.958364 C4.87284332,71.9611078 2.46640042,72.734849 0.857618316,73.4404949 C-0.141202555,73.8784993 -0.305221555,75.1915145 0.564976513,75.837546 C5.52144125,79.5166827 9.14182416,84.604617 10.7521019,87.1139129 C11.2289535,87.8572233 10.9036574,88.8377444 10.0658643,89.1642522 C6.899151,90.3984466 4.00738136,92.6700329 2.26224911,94.2232522 C1.45910441,94.9381272 1.73230323,96.2222082 2.75779588,96.5816412 C15.3491207,100.99436 23.0996417,109.511998 27.4301919,116 L36.569889,116 C40.90019,109.511998 48.6507109,100.99461 61.242285,96.5816412 C62.2675284,96.2222082 62.5409765,94.9381272 61.7378318,94.2232522 C59.9926996,92.6700329 57.1006807,90.3984466 53.9342166,89.1642522 C53.0964235,88.8377444 52.7711274,87.8569738 53.247979,87.1139129 C54.8582568,84.604617 58.4783904,79.5166827 63.4351044,75.837546 C64.3053025,75.1915145 64.1410342,73.8787487 63.1424626,73.4407443 Z" id="Shape" fill="#30AA44"></path>
                <g id="Group" fill="#269E35">
                    <path d="M11.44925,96.8074571 C10.42925,96.4228133 10.184,95.1242639 11.00525,94.4230172 C12.79,92.8992554 13.16475,90.9371202 16.36775,89.766367 C17.215,89.456794 17.56325,88.2185021 17.10175,87.4597597 C15.5435,84.8983133 12.0275,80.2140451 7.14025,76.3999957 C6.282,75.7303841 6.476,74.4127532 7.48725,73.9944657 C9.116,73.3205858 10.00075,72.5959893 12.831,72.657 C13.90775,72.6800987 14.61875,71.5771352 14.157,70.6298369 C12.864,67.977 10.27125,63.382867 6.10375,59.0357897 C5.277,58.1733541 5.8425,56.7698562 7.04875,56.6634013 C7.1305,56.6561202 7.21975,56.6508476 7.3045,56.6443197 C5.0225,56.3485558 3.06675,56.4100687 1.60525,56.5722618 C0.402,56.7058326 -0.13225,58.1218841 0.7135,58.9654893 C4.97675,63.217912 7.67125,67.7525408 9.023,70.3757511 C9.50575,71.3125043 8.81925,72.4310343 7.74225,72.4322897 C4.9115,72.4350515 2.498,73.2138798 0.8845,73.9241652 C-0.11725,74.3650494 -0.28175,75.6866974 0.591,76.3369764 C5.562,80.0403026 9.193,85.1616888 10.808,87.6874828 C11.28625,88.4356803 10.96,89.4226481 10.11975,89.7513026 C6.94375,90.9936116 4.0435,93.280133 2.29325,94.8435644 C1.48775,95.5631395 1.76175,96.8556631 2.79025,97.2174592 C15.4185,101.659191 23.19175,110.23283 27.535,116.763489 L33.05125,116.763489 C29.489,112.805324 23.83075,101.476912 11.44925,96.8074571 Z" id="Shape"></path>
                    <path d="M9.12525,54.780103 C9.41725,55.5408541 8.99225,56.3186781 8.2955,56.5885815 C9.61875,56.5458991 11.20825,56.6089185 12.98725,56.8981545 C14.078,57.075412 14.971,56.0565579 14.60675,55.0407167 C13.7085,52.5352597 11.97225,48.4924828 9.21675,45.2124657 C8.62025,44.5021803 8.871,43.5332897 9.5595,43.1079721 C7.8725,42.8671931 6.1225,42.7655086 4.65475,42.7313627 C3.38975,42.7017361 2.6955,44.139882 3.51775,45.0756309 C6.3455,48.2926288 8.1715,52.295485 9.12525,54.780103 Z" id="Shape"></path>
                    <path d="M11.66925,42.9678734 C13.127,43.0700601 14.7385,43.2468155 16.24125,43.5518691 C17.377,43.7823541 18.3085,42.6793906 17.87675,41.6311609 C16.53575,38.3747446 14.60725,32.718573 14.718,27.3350665 C14.7185,27.3134742 14.72225,27.2931373 14.7235,27.2717961 C12.9965,26.8118305 11.68,26.2762918 10.73075,25.8060322 C9.76275,25.3264828 8.61775,26.022206 8.6195,27.0789721 C8.62875,32.4637339 10.68275,38.0752146 12.096,41.3004979 C12.372,41.9309421 12.14475,42.5910129 11.66925,42.9678734 Z" id="Shape"></path>
                    <path d="M18.9915,27.0583841 C20.19275,27.512073 21.68175,27.9574764 23.4935,28.3054635 C24.4265,28.4847296 25.289,27.7706781 25.23825,26.8469807 C24.9975,22.4740429 25.47,10.9128863 35.86125,2.57927253 C34.98275,1.78537983 34.026,1.01333047 32.9795,0.27216309 C32.46725,-0.0906373391 31.76925,-0.0906373391 31.257,0.27216309 C19.031,8.93116738 18.767,21.7127897 19.12625,26.3546266 C19.146,26.6087124 19.094,26.8474828 18.9915,27.0583841 Z" id="Shape"></path>
                </g>
                <g id="Group" transform="translate(31.000000, 59.000000)" fill="#83CC8E">
                    <path d="M3.06307692,34.828 C2.88461538,34.828 2.70358974,34.80425 2.52333333,34.75475 C1.47025641,34.46475 0.857948718,33.39725 1.15538462,32.3705 C4.43564103,21.04975 16.3594872,14.82725 16.8653846,14.56775 C17.8338462,14.07175 19.0317949,14.4345 19.5410256,15.37875 C20.0497436,16.3225 19.6784615,17.48925 18.7112821,17.98625 L18.7112821,17.98625 C18.6023077,18.0425 7.77948718,23.7195 4.96846154,33.42075 C4.72205128,34.27225 3.9274359,34.828 3.06307692,34.828 Z" id="Shape"></path>
                    <path d="M2.17948718,13.59325 C1.8325641,13.59325 1.48128205,13.5045 1.16230769,13.31775 C0.223846154,12.769 -0.0805128205,11.5825 0.482307692,10.66775 C4.89102564,3.501 13.02,0.381 13.3641026,0.2515 C14.3848718,-0.133 15.5317949,0.3635 15.925641,1.3585 C16.3189744,2.353 15.8120513,3.46975 14.7933333,3.855 L14.7935897,3.855 C14.7217949,3.88225 7.57384615,6.65175 3.88051282,12.65475 C3.50897436,13.25875 2.8525641,13.59325 2.17948718,13.59325 Z" id="Shape"></path>
                </g>
                <g id="Group" transform="translate(14.000000, 64.000000)" fill="#78C181">
                    <path d="M17.3346154,34.8411151 C16.4702564,34.8411151 15.675641,34.2813669 15.4289744,33.4239928 C12.6284615,23.689964 1.43641026,18.2465827 1.32358974,18.1926978 C0.340512821,17.7230935 -0.0705128205,16.5597842 0.406410256,15.5936331 C0.883333333,14.627482 2.06589744,14.2230935 3.05025641,14.6899281 C3.57538462,14.9392086 15.9512821,20.926223 19.2420513,32.3659353 C19.5397436,33.4000719 18.9271795,34.4752518 17.8741026,34.7673381 C17.6941026,34.8171942 17.5128205,34.8411151 17.3346154,34.8411151 Z" id="Shape"></path>
                    <path d="M17.8658974,13.9148921 C17.1928205,13.9148921 16.5364103,13.5779856 16.1648718,12.9696403 C12.4612821,6.90633094 5.22410256,3.94669065 5.15153846,3.91748201 C4.14,3.51107914 3.65282051,2.37672662 4.06487179,1.3826259 C4.47717949,0.388273381 5.62948718,-0.0898920863 6.6425641,0.312230216 C6.98846154,0.44971223 15.1638462,3.76589928 19.5628205,10.9683453 C20.125641,11.8896763 19.8212821,13.0847122 18.8828205,13.6374101 C18.5638462,13.8255036 18.2125641,13.9148921 17.8658974,13.9148921 Z" id="Shape"></path>
                </g>
                <path d="M41.7589683,44.9780911 C41.2465737,44.0597993 40.0841741,43.7296574 39.1629014,44.240011 C38.9687152,44.3475964 35.1198261,46.4941342 32,49.1608732 L32,54 C32.3757725,53.9244194 32.7325217,53.7353449 33.0144129,53.4349921 C35.7809486,50.4875955 40.966906,47.5936224 41.0187878,47.5645719 C41.9400605,47.0539721 42.2713629,45.8958905 41.7589683,44.9780911 Z" id="Shape" fill="#83CC8E"></path>
                <path d="M32.9997371,54.5317647 C29.6375351,51.6891033 25.2386256,49.3566189 25.0270258,49.244833 C24.0489354,48.7294852 22.8116682,49.0542553 22.2615088,49.9697179 C21.7113494,50.8851804 22.0575319,52.0451438 23.0345708,52.5607379 C23.0887193,52.5892999 28.4701878,55.4457499 31.417076,58.3969963 C31.8171441,58.7976035 32.3583664,59 32.900903,59 C32.9340229,59 32.96688,58.9972915 33,58.9958142 L33,54.5317647 L32.9997371,54.5317647 Z" id="Shape" fill="#78C181"></path>
                <path d="M31.7985596,43.1838549 L27.0085989,122.883581 C26.8417345,125.659915 29.1247203,128 31.9999996,128 L31.9999996,128 L31.9999996,128 C34.8755294,128 37.1582646,125.659915 36.9914002,122.883581 L32.2014395,43.1838549 C32.1869078,42.938715 31.8133419,42.938715 31.7985596,43.1838549 Z" id="Shape" fill="#83CC8E"></path>
                <path d="M31.5252459,122.883581 L34,79.4608041 L31.9324779,43.1838549 C31.91846,42.938715 31.5644485,42.938715 31.5504306,43.1838549 L27.0081543,122.883581 C26.8499183,125.659915 29.014853,128 31.7414542,128 C32.561858,128 33.3295165,127.785127 34,127.413165 C32.4416367,126.549422 31.4147658,124.824688 31.5252459,122.883581 Z" id="Shape" fill="#78C181"></path>
            </g>
        </g>
    </g>
</svg>