<?xml version="1.0" encoding="UTF-8"?>
<svg width="25px" height="27px" viewBox="0 0 25 27" version="1.1" xmlns="http://www.w3.org/2000/svg" xmlns:xlink="http://www.w3.org/1999/xlink">
    <!-- Generator: Sketch 47.1 (45422) - http://www.bohemiancoding.com/sketch -->
    <title>search</title>
    <desc>Created with Sketch.</desc>
    <defs></defs>
    <g id="Page-1" stroke="none" stroke-width="1" fill="none" fill-rule="evenodd">
        <g id="Search-Main-Page" transform="translate(-683.000000, -406.000000)" fill-rule="nonzero" fill="#30AA44">
            <g id="search" transform="translate(683.000000, 406.000000)">
                <path d="M24.8633853,26.1369747 L17.5795178,18.2596383 C19.4373722,16.3220368 20.5883595,13.6508892 20.5883595,10.7049806 C20.5883595,4.80194842 15.9706846,0 10.2941798,0 C4.61767492,0 0,4.80194842 0,10.7049806 C0,16.6080127 4.61767492,21.4099611 10.2941798,21.4099611 C12.7858615,21.4099611 15.07264,20.4837254 16.8550037,18.9467961 L24.1565183,26.8435034 C24.2525973,26.9480044 24.3810295,27 24.5099518,27 C24.6325016,27 24.7545611,26.9525922 24.8496597,26.8577767 C25.044759,26.6625382 25.0506413,26.3398595 24.8633853,26.1369747 Z M10.2941798,20.3904391 C5.15836446,20.3904391 0.980398072,16.0457463 0.980398072,10.7049806 C0.980398072,5.36421478 5.15836446,1.01952196 10.2941798,1.01952196 C15.4299951,1.01952196 19.6079614,5.36421478 19.6079614,10.7049806 C19.6079614,16.0457463 15.4295049,20.3904391 10.2941798,20.3904391 Z" id="Shape"></path>
            </g>
        </g>
    </g>
</svg>